<svg width="59" height="75" viewBox="0 0 59 75" fill="none" xmlns="http://www.w3.org/2000/svg">
<path d="M29.3379 0C45.7885 5.59302e-06 58.9434 13.1556 58.9434 29.333C58.9432 37.3974 55.3585 44.8674 47.9854 52.1816C34 64.0001 29.3379 64.1045 29.3379 74.5C29.3379 64.0562 21.6643 62.8017 10.958 52.1758C3.58492 44.8669 0.000140175 37.3974 0 29.333C0 13.1556 13.1552 0 29.3379 0ZM38.1143 20.6152C33.3867 15.8878 25.7672 15.8139 20.9492 20.3936L20.7217 20.6152C15.9194 25.4179 15.9193 33.2052 20.7217 38.0078L20.9492 38.2285C25.7671 42.8084 33.3866 42.7351 38.1143 38.0078C42.8419 33.2801 42.915 25.6608 38.335 20.8428L38.1143 20.6152ZM26.3789 26.2725C28.0573 24.594 30.7785 24.5941 32.457 26.2725C34.1353 27.951 34.1354 30.6722 32.457 32.3506C30.7786 34.0286 28.0573 34.0288 26.3789 32.3506C24.7007 30.6722 24.7008 27.9509 26.3789 26.2725Z" fill="#A3CFA7"/>
</svg>
